<svg width="66.164" height="50.133" viewBox="0 0 66.164 50.133" xmlns="http://www.w3.org/2000/svg"><g id="svgGroup" stroke-linecap="round" fill-rule="evenodd" font-size="9pt" stroke="#ffffff" stroke-width="0.25" fill="#ffffff" style="stroke:#ffffff;stroke-width:0.25;fill:#ffffff" class=""><path d="M 44.297 8.086 L 44.297 8.156 A 2.983 2.983 0 0 0 43.942 8.503 Q 43.782 8.686 43.629 8.911 A 5.268 5.268 0 0 0 43.559 9.018 A 12.001 12.001 0 0 0 43.051 9.884 A 13.686 13.686 0 0 0 42.891 10.195 Q 42.574 10.828 42.275 11.479 A 25.474 25.474 0 0 1 41.981 12.098 A 19.443 19.443 0 0 1 41.695 12.656 A 33.009 33.009 0 0 0 41.493 13.067 Q 41.403 13.255 41.324 13.424 A 18.843 18.843 0 0 0 41.273 13.535 A 3.67 3.67 0 0 0 41.172 13.786 Q 41.07 14.064 40.957 14.47 A 16.934 16.934 0 0 0 40.887 14.731 A 8.051 8.051 0 0 1 40.818 14.976 Q 40.715 15.315 40.623 15.486 A 1.579 1.579 0 0 1 40.5 15.681 A 1.155 1.155 0 0 1 40.342 15.856 A 2.688 2.688 0 0 1 40.062 16.072 A 3.042 3.042 0 0 1 39.99 16.119 Q 39.816 16.23 39.627 16.528 A 3.047 3.047 0 0 0 39.586 16.594 Q 39.562 16.617 39.555 16.641 A 0.074 0.074 0 0 0 39.551 16.664 Q 39.551 16.734 39.568 16.84 Q 39.586 16.945 39.586 17.016 A 0.088 0.088 0 0 1 39.575 17.053 Q 39.537 17.129 39.369 17.286 A 3.625 3.625 0 0 1 39.357 17.297 A 26.473 26.473 0 0 0 39.251 17.396 Q 39.103 17.534 39.023 17.613 A 1.699 1.699 0 0 0 38.852 17.985 A 2.218 2.218 0 0 0 38.777 18.281 A 2.158 2.158 0 0 1 38.681 18.642 A 1.663 1.663 0 0 1 38.531 18.949 A 1.352 1.352 0 0 1 38.217 19.267 A 1.263 1.263 0 0 1 38.109 19.336 A 0.84 0.84 0 0 0 37.867 19.54 A 0.787 0.787 0 0 0 37.758 19.723 Q 37.125 20.707 36.563 21.779 A 42.583 42.583 0 0 1 35.367 23.906 A 146.612 146.612 0 0 1 34.466 25.444 A 125.721 125.721 0 0 1 33.592 26.895 A 29.781 29.781 0 0 0 32.399 29.043 A 34.672 34.672 0 0 0 31.957 29.953 A 0.064 0.064 0 0 1 31.954 29.969 Q 31.931 30.045 31.746 30.445 Q 31.601 30.76 31.373 31.157 A 16.116 16.116 0 0 1 31.148 31.535 A 1.136 1.136 0 0 1 30.925 31.845 A 1.041 1.041 0 0 1 30.762 31.975 A 1.45 1.45 0 0 0 30.53 32.158 A 1.166 1.166 0 0 0 30.375 32.344 Q 30.199 32.66 30.146 32.977 A 1.473 1.473 0 0 1 30.021 33.367 A 1.934 1.934 0 0 1 29.883 33.609 Q 29.742 33.82 29.479 34.014 A 2.072 2.072 0 0 0 29.278 34.18 Q 29.178 34.274 29.106 34.373 A 1.187 1.187 0 0 0 29.074 34.418 A 6.619 6.619 0 0 0 28.651 35.217 A 7.998 7.998 0 0 0 28.459 35.684 A 33.078 33.078 0 0 1 28.333 36.015 Q 28.151 36.483 28.02 36.774 Q 27.422 38.004 26.684 39.375 A 247.395 247.395 0 0 0 25.928 40.79 A 293.57 293.57 0 0 0 25.137 42.293 A 22.94 22.94 0 0 1 24.82 42.85 Q 24.676 43.094 24.514 43.36 A 41.183 41.183 0 0 1 24.17 43.91 Q 23.59 44.824 22.781 46.512 A 5.497 5.497 0 0 0 22.419 47.362 A 6.376 6.376 0 0 0 22.324 47.672 A 13.487 13.487 0 0 1 22.091 48.429 A 11.313 11.313 0 0 1 21.938 48.85 Q 21.727 49.395 21.428 49.764 A 0.969 0.969 0 0 1 20.823 50.111 A 1.456 1.456 0 0 1 20.566 50.133 Q 20.057 50.133 19.714 49.929 A 1.203 1.203 0 0 1 19.6 49.852 Q 19.23 49.57 18.984 49.219 Q 18.738 48.867 18.65 48.551 Q 18.564 48.241 18.563 48.167 A 0.126 0.126 0 0 1 18.563 48.164 A 1.422 1.422 0 0 1 18.576 47.96 Q 18.592 47.853 18.625 47.766 A 0.627 0.627 0 0 1 18.703 47.619 Q 18.844 47.426 19.037 47.285 A 19.927 19.927 0 0 1 19.239 47.14 A 24.972 24.972 0 0 1 19.459 46.986 Q 19.647 46.856 19.824 46.618 A 2.595 2.595 0 0 0 19.898 46.512 A 2.664 2.664 0 0 1 20.085 46.113 Q 20.209 45.898 20.363 45.741 A 1.507 1.507 0 0 1 20.461 45.65 Q 20.81 45.354 21.193 44.936 A 11.848 11.848 0 0 0 21.199 44.93 A 0.884 0.884 0 0 0 21.322 44.543 A 0.884 0.884 0 0 1 21.445 44.156 Q 21.597 43.944 21.854 43.731 A 3.515 3.515 0 0 1 21.938 43.664 Q 22.228 43.438 22.252 42.827 A 2.883 2.883 0 0 0 22.254 42.715 Q 22.254 42.609 22.236 42.504 Q 22.219 42.399 22.219 42.293 A 4.003 4.003 0 0 1 22.232 41.955 A 3.327 3.327 0 0 1 22.254 41.766 A 2.002 2.002 0 0 1 22.357 41.42 A 2.24 2.24 0 0 1 22.359 41.414 Q 22.399 41.315 22.461 41.272 A 0.186 0.186 0 0 1 22.57 41.238 Q 22.641 41.238 22.746 41.256 Q 22.852 41.274 22.922 41.274 A 0.202 0.202 0 0 0 22.978 41.267 Q 23.04 41.249 23.057 41.185 A 0.207 0.207 0 0 0 23.063 41.133 A 0.363 0.363 0 0 0 23.058 41.08 Q 23.054 41.053 23.047 41.023 A 0.908 0.908 0 0 0 23.027 40.957 Q 23.004 40.888 22.996 40.835 A 0.365 0.365 0 0 1 22.992 40.781 Q 22.992 40.711 23.063 40.711 A 0.182 0.182 0 0 1 23.089 40.713 Q 23.116 40.717 23.15 40.729 A 0.459 0.459 0 0 0 23.182 40.738 Q 23.198 40.742 23.212 40.744 A 0.182 0.182 0 0 0 23.238 40.746 Q 23.344 40.746 23.414 40.395 A 4.23 4.23 0 0 1 23.445 40.253 Q 23.492 40.051 23.54 39.962 A 0.301 0.301 0 0 1 23.555 39.938 A 0.263 0.263 0 0 1 23.64 39.859 Q 23.679 39.835 23.729 39.819 A 0.687 0.687 0 0 1 23.818 39.797 Q 24.012 39.762 24.082 39.656 A 0.571 0.571 0 0 0 24.167 39.488 Q 24.191 39.415 24.201 39.328 A 1.061 1.061 0 0 0 24.205 39.287 A 0.721 0.721 0 0 1 24.363 38.883 A 0.28 0.28 0 0 1 24.416 38.843 Q 24.491 38.797 24.627 38.76 A 1.065 1.065 0 0 0 24.704 38.736 Q 24.828 38.692 24.855 38.637 A 1.921 1.921 0 0 0 25.029 38.276 A 2.532 2.532 0 0 0 25.119 37.969 A 2.474 2.474 0 0 1 25.229 37.608 A 1.884 1.884 0 0 1 25.383 37.301 A 121.522 121.522 0 0 1 26.701 35.086 A 74.737 74.737 0 0 0 28.02 32.836 A 69.395 69.395 0 0 0 30.357 28.303 A 75.757 75.757 0 0 0 30.375 28.266 A 298.947 298.947 0 0 1 32.73 23.379 Q 33.012 22.781 33.381 22.219 A 11.769 11.769 0 0 0 34.066 21.024 A 11.318 11.318 0 0 0 34.459 20.078 A 12.965 12.965 0 0 0 34.576 19.74 Q 34.805 19.055 35.086 18.422 Q 35.895 16.594 36.896 14.906 Q 37.898 13.219 38.777 11.32 A 86.769 86.769 0 0 0 39.05 10.736 A 74.745 74.745 0 0 0 39.305 10.178 Q 39.551 9.633 39.779 9.053 A 51.963 51.963 0 0 1 40.021 8.451 A 65.112 65.112 0 0 1 40.289 7.805 A 54.741 54.741 0 0 0 40.579 7.102 A 71.746 71.746 0 0 0 40.887 6.328 A 5.973 5.973 0 0 0 41.22 5.257 A 6.995 6.995 0 0 0 41.291 4.869 A 4.735 4.735 0 0 1 41.378 4.435 Q 41.498 3.963 41.695 3.691 Q 41.874 3.394 42.393 3.083 A 5.091 5.091 0 0 1 42.592 2.971 A 21.002 21.002 0 0 0 43.391 2.517 A 26.806 26.806 0 0 0 44.051 2.109 A 2.909 2.909 0 0 0 44.401 1.854 A 2.49 2.49 0 0 0 44.543 1.723 A 2.071 2.071 0 0 1 44.805 1.503 A 2.78 2.78 0 0 1 45.07 1.336 A 3.528 3.528 0 0 1 45.62 1.115 A 3.144 3.144 0 0 1 45.773 1.072 Q 46.125 0.984 46.406 0.844 A 1.156 1.156 0 0 0 46.59 0.648 Q 46.69 0.514 46.775 0.334 A 0.511 0.511 0 0 1 47.043 0.084 Q 47.143 0.039 47.274 0.019 A 1.642 1.642 0 0 1 47.531 0 A 0.483 0.483 0 0 1 47.726 0.037 Q 47.844 0.089 47.919 0.21 A 0.655 0.655 0 0 1 47.971 0.316 Q 48.094 0.633 48.094 0.809 A 1.779 1.779 0 0 1 47.936 1.547 A 10.759 10.759 0 0 0 47.845 1.753 Q 47.768 1.935 47.721 2.067 A 2.817 2.817 0 0 0 47.707 2.109 Q 47.602 2.531 47.373 2.848 A 8.08 8.08 0 0 1 46.881 3.463 A 28.698 28.698 0 0 0 46.354 4.078 A 4.286 4.286 0 0 0 45.932 4.686 A 4.779 4.779 0 0 0 45.879 4.781 Q 45.844 4.816 45.844 4.922 A 0.732 0.732 0 0 0 45.854 5.043 A 0.983 0.983 0 0 0 45.879 5.15 A 0.926 0.926 0 0 1 45.912 5.353 A 1.081 1.081 0 0 1 45.914 5.414 L 45.65 5.678 A 6.713 6.713 0 0 0 45.395 5.948 Q 45.265 6.094 45.127 6.262 A 11.29 11.29 0 0 0 45.088 6.311 A 9.318 9.318 0 0 0 44.525 7.084 Q 44.313 7.409 44.272 7.632 A 0.56 0.56 0 0 0 44.262 7.734 Q 44.262 7.805 44.279 7.91 Q 44.297 8.016 44.297 8.086 Z M 66.164 25.488 L 66.164 25.629 A 3.131 3.131 0 0 1 66.154 25.888 Q 66.127 26.217 66.023 26.385 A 0.977 0.977 0 0 1 65.865 26.583 A 0.797 0.797 0 0 1 65.672 26.719 Q 65.461 26.824 65.197 26.895 A 1.179 1.179 0 0 0 64.879 27.035 A 1.556 1.556 0 0 0 64.688 27.176 A 18.385 18.385 0 0 1 63.981 27.75 Q 63.611 28.036 63.185 28.341 A 33.078 33.078 0 0 1 62.895 28.547 Q 61.84 29.285 61.137 29.918 A 13.767 13.767 0 0 1 60.768 30.373 A 12.39 12.39 0 0 1 60.645 30.516 A 2.537 2.537 0 0 1 60.152 30.955 Q 59.932 31.107 59.733 31.161 A 0.883 0.883 0 0 1 59.625 31.184 Q 59.238 31.184 58.939 31.377 A 2.78 2.78 0 0 0 58.442 31.785 A 2.588 2.588 0 0 0 58.412 31.816 A 4.968 4.968 0 0 0 58.201 32.058 A 3.739 3.739 0 0 0 58.025 32.291 A 4.822 4.822 0 0 1 57.95 32.398 Q 57.866 32.511 57.8 32.584 A 1.107 1.107 0 0 1 57.762 32.625 A 0.621 0.621 0 0 1 57.445 32.748 A 0.972 0.972 0 0 0 57.249 32.788 A 0.819 0.819 0 0 0 57.129 32.836 A 2.318 2.318 0 0 0 56.948 33.015 Q 56.73 33.253 56.461 33.645 A 5.64 5.64 0 0 1 56.171 34.032 Q 56.012 34.225 55.854 34.376 A 2.901 2.901 0 0 1 55.688 34.524 Q 55.548 34.593 55.356 34.611 A 1.326 1.326 0 0 1 55.354 34.611 A 0.694 0.694 0 0 0 55.155 34.658 A 0.6 0.6 0 0 0 55.02 34.734 Q 54.597 35.097 54.174 35.667 A 8.629 8.629 0 0 0 54.035 35.859 A 6.285 6.285 0 0 1 53.326 36.709 A 5.414 5.414 0 0 1 52.945 37.055 Q 52.559 37.336 52.154 37.477 A 1.842 1.842 0 0 0 51.647 37.744 A 1.688 1.688 0 0 0 51.469 37.899 A 0.718 0.718 0 0 0 51.342 37.997 Q 51.232 38.103 51.121 38.28 A 2.347 2.347 0 0 0 51.117 38.285 Q 50.945 38.561 50.536 38.566 A 1.245 1.245 0 0 1 50.52 38.566 A 0.329 0.329 0 0 1 50.299 38.477 Q 50.157 38.352 50.045 38.057 A 2.98 2.98 0 0 1 49.877 37.411 A 2.576 2.576 0 0 1 49.852 37.055 A 1.628 1.628 0 0 1 49.873 36.798 Q 49.892 36.678 49.929 36.547 A 2.73 2.73 0 0 1 49.939 36.51 A 2.118 2.118 0 0 1 50.147 36.027 A 1.962 1.962 0 0 1 50.186 35.965 A 3.868 3.868 0 0 1 50.341 35.74 A 2.81 2.81 0 0 1 50.502 35.543 A 0.679 0.679 0 0 1 50.603 35.45 Q 50.715 35.367 50.836 35.367 Q 50.977 35.367 51.188 35.156 A 7.863 7.863 0 0 0 51.504 34.82 A 8.902 8.902 0 0 0 51.609 34.699 A 100.971 100.971 0 0 0 51.916 34.34 A 89.549 89.549 0 0 0 52.014 34.225 A 11.893 11.893 0 0 1 52.105 34.118 Q 52.233 33.97 52.313 33.891 A 0.492 0.492 0 0 1 52.628 33.778 Q 52.668 33.778 52.711 33.784 A 0.641 0.641 0 0 1 52.717 33.785 A 0.596 0.596 0 0 0 52.808 33.792 Q 52.947 33.792 53.081 33.724 A 0.758 0.758 0 0 0 53.156 33.68 A 0.586 0.586 0 0 0 53.234 33.631 Q 53.357 33.543 53.543 33.347 A 5.273 5.273 0 0 0 53.561 33.328 A 2.822 2.822 0 0 1 54.132 32.863 A 3.158 3.158 0 0 1 54.176 32.836 A 0.858 0.858 0 0 1 54.396 32.762 A 1.041 1.041 0 0 1 54.492 32.748 A 0.782 0.782 0 0 0 54.723 32.687 A 1 1 0 0 0 54.844 32.625 Q 54.899 32.598 54.932 32.485 A 0.806 0.806 0 0 0 54.949 32.414 Q 54.984 32.238 55.02 32.203 Q 55.316 32.096 55.55 31.998 A 8.09 8.09 0 0 0 55.688 31.94 A 4.303 4.303 0 0 0 55.908 31.835 Q 56.029 31.774 56.159 31.7 A 7.825 7.825 0 0 0 56.32 31.606 A 7.252 7.252 0 0 0 56.557 31.457 Q 56.832 31.277 57.188 31.016 A 23.879 23.879 0 0 0 57.199 31.008 Q 57.727 30.621 58.605 29.918 A 1.897 1.897 0 0 1 58.992 29.619 Q 59.152 29.526 59.331 29.363 A 3.459 3.459 0 0 0 59.449 29.25 A 3.408 3.408 0 0 1 59.484 29.233 Q 59.568 29.192 59.781 29.092 A 107.118 107.118 0 0 1 59.818 29.074 A 254.554 254.554 0 0 0 60.126 28.929 A 301.007 301.007 0 0 0 60.451 28.775 A 7.957 7.957 0 0 0 60.768 28.617 A 6.039 6.039 0 0 0 61.049 28.459 Q 61.313 28.301 61.313 28.195 L 61.225 27.984 Q 61.137 27.774 60.996 27.492 A 2.194 2.194 0 0 0 60.645 26.982 A 0.987 0.987 0 0 0 60.523 26.869 Q 60.452 26.815 60.382 26.787 A 0.418 0.418 0 0 0 60.223 26.754 A 0.578 0.578 0 0 0 60.082 26.772 A 0.578 0.578 0 0 1 59.941 26.789 A 0.049 0.049 0 0 1 59.923 26.784 Q 59.881 26.766 59.782 26.68 A 2.792 2.792 0 0 1 59.766 26.666 A 2.963 2.963 0 0 1 59.63 26.539 Q 59.561 26.47 59.488 26.39 A 4.922 4.922 0 0 1 59.467 26.367 A 9.226 9.226 0 0 0 59.133 26.016 Q 58.998 25.881 58.884 25.788 A 2.017 2.017 0 0 0 58.816 25.734 A 1.407 1.407 0 0 0 58.58 25.574 A 1.142 1.142 0 0 0 58.377 25.488 A 2.026 2.026 0 0 1 58.137 25.398 A 1.608 1.608 0 0 1 57.973 25.313 A 17.02 17.02 0 0 1 56.796 24.238 A 14.97 14.97 0 0 1 56.443 23.871 A 16.164 16.164 0 0 0 55.701 23.124 A 20.946 20.946 0 0 0 54.844 22.359 Q 54.141 21.797 53.49 21.199 Q 52.84 20.602 52.33 20.074 A 10.088 10.088 0 0 1 51.924 19.63 Q 51.743 19.419 51.597 19.221 A 5.537 5.537 0 0 1 51.504 19.09 A 2.726 2.726 0 0 1 51.351 18.844 Q 51.21 18.586 51.191 18.381 A 0.679 0.679 0 0 1 51.188 18.316 Q 51.188 18.089 51.256 17.977 A 0.252 0.252 0 0 1 51.293 17.93 Q 51.398 17.824 51.539 17.719 A 1.657 1.657 0 0 0 51.663 17.615 Q 51.748 17.538 51.838 17.438 Q 51.996 17.262 52.102 16.875 Q 52.155 16.715 52.168 16.383 A 5.928 5.928 0 0 0 52.172 16.154 Q 52.172 15.645 52.225 15.135 A 4.648 4.648 0 0 1 52.299 14.651 A 3.542 3.542 0 0 1 52.418 14.221 A 0.931 0.931 0 0 1 52.496 14.049 Q 52.635 13.816 52.875 13.816 A 0.071 0.071 0 0 1 52.896 13.821 Q 52.956 13.843 53.156 13.957 Q 53.402 14.098 53.684 14.274 A 2.866 2.866 0 0 1 54.193 14.678 A 1.66 1.66 0 0 1 54.282 14.774 Q 54.37 14.876 54.402 14.957 A 0.243 0.243 0 0 1 54.422 15.047 A 0.234 0.234 0 0 1 54.421 15.068 Q 54.418 15.102 54.405 15.164 A 2.361 2.361 0 0 1 54.404 15.17 A 0.999 0.999 0 0 0 54.392 15.244 Q 54.387 15.289 54.387 15.328 A 0.351 0.351 0 0 0 54.495 15.583 A 0.516 0.516 0 0 0 54.545 15.627 A 1.985 1.985 0 0 0 54.74 15.76 A 2.537 2.537 0 0 0 54.914 15.856 A 6.74 6.74 0 0 0 55.336 16.049 A 1.188 1.188 0 0 1 55.546 16.161 A 0.964 0.964 0 0 1 55.688 16.277 A 0.473 0.473 0 0 1 55.752 16.393 Q 55.786 16.482 55.775 16.576 Q 55.761 16.705 55.828 16.822 A 0.518 0.518 0 0 0 55.863 16.875 Q 56.18 17.332 56.654 17.789 A 12.497 12.497 0 0 0 57.674 18.668 Q 58.219 19.09 58.729 19.494 Q 59.23 19.892 59.613 20.239 A 12.332 12.332 0 0 1 59.625 20.25 Q 60.244 20.842 60.76 21.29 A 20.038 20.038 0 0 0 61.066 21.551 Q 61.699 22.078 62.367 22.57 A 4.302 4.302 0 0 1 62.854 23.029 A 5.056 5.056 0 0 1 63.035 23.238 Q 63.257 23.51 63.462 23.678 A 1.663 1.663 0 0 0 63.633 23.801 A 1.824 1.824 0 0 0 63.705 23.842 Q 63.809 23.898 63.864 23.905 A 0.116 0.116 0 0 0 63.879 23.906 A 0.098 0.098 0 0 1 63.923 23.918 Q 63.978 23.946 64.048 24.038 A 1.057 1.057 0 0 1 64.055 24.047 A 0.956 0.956 0 0 0 64.148 24.108 Q 64.284 24.187 64.512 24.275 A 13.022 13.022 0 0 1 64.921 24.443 A 15.739 15.739 0 0 1 65.18 24.557 A 2.888 2.888 0 0 1 65.741 24.887 A 2.671 2.671 0 0 1 65.813 24.943 A 1.086 1.086 0 0 1 66.03 25.177 A 0.9 0.9 0 0 1 66.164 25.488 Z M 11.742 37.336 L 11.742 37.301 A 0.578 0.578 0 0 1 11.76 37.16 A 0.578 0.578 0 0 0 11.777 37.02 A 0.351 0.351 0 0 0 11.669 36.765 A 0.516 0.516 0 0 0 11.619 36.721 A 1.985 1.985 0 0 0 11.424 36.588 A 2.537 2.537 0 0 0 11.25 36.492 A 15.427 15.427 0 0 0 10.867 36.308 A 16.986 16.986 0 0 0 10.811 36.281 Q 10.582 36.176 10.477 36.07 A 0.473 0.473 0 0 1 10.412 35.955 Q 10.378 35.866 10.389 35.772 Q 10.405 35.622 10.312 35.457 A 0.843 0.843 0 0 0 10.301 35.438 A 5.551 5.551 0 0 0 9.966 35.034 Q 9.781 34.831 9.559 34.621 A 9.39 9.39 0 0 0 9.492 34.559 A 19.668 19.668 0 0 0 8.455 33.662 Q 7.91 33.223 7.383 32.818 Q 6.958 32.493 6.648 32.202 A 6.242 6.242 0 0 1 6.504 32.063 A 32.439 32.439 0 0 0 5.922 31.543 Q 5.458 31.14 5.063 30.832 A 41.802 41.802 0 0 1 4.094 30.054 A 47.481 47.481 0 0 1 3.762 29.777 Q 3.199 29.32 2.689 28.846 A 212.616 212.616 0 0 1 2.514 28.682 Q 2.23 28.417 2.14 28.331 A 2.349 2.349 0 0 1 2.109 28.301 A 0.677 0.677 0 0 0 2.001 28.215 Q 1.885 28.139 1.701 28.068 A 2.915 2.915 0 0 0 1.617 28.037 A 6.014 6.014 0 0 1 0.92 27.741 A 6.584 6.584 0 0 1 0.914 27.738 A 3.528 3.528 0 0 1 0.408 27.432 A 3.144 3.144 0 0 1 0.281 27.334 A 0.738 0.738 0 0 1 0.003 26.796 A 1.001 1.001 0 0 1 0 26.719 A 3.131 3.131 0 0 1 0.01 26.46 Q 0.037 26.131 0.141 25.963 A 0.977 0.977 0 0 1 0.299 25.765 A 0.797 0.797 0 0 1 0.492 25.629 Q 0.703 25.524 0.967 25.453 A 1.179 1.179 0 0 0 1.286 25.313 A 1.556 1.556 0 0 0 1.477 25.172 Q 1.863 24.891 2.268 24.469 A 6.348 6.348 0 0 1 3.164 23.695 A 15.613 15.613 0 0 1 3.609 23.381 Q 3.884 23.193 4.131 23.045 A 8.847 8.847 0 0 0 4.687 22.681 A 10.56 10.56 0 0 0 5.027 22.43 A 0.29 0.29 0 0 1 5.056 22.31 Q 5.101 22.212 5.214 22.097 A 1.733 1.733 0 0 1 5.309 22.008 A 6.883 6.883 0 0 1 5.688 21.7 A 8.466 8.466 0 0 1 5.941 21.516 A 11.931 11.931 0 0 1 6.645 21.059 A 14.845 14.845 0 0 0 6.807 20.96 Q 7.031 20.821 7.137 20.742 A 0.405 0.405 0 0 1 7.222 20.7 Q 7.308 20.668 7.434 20.656 A 1.412 1.412 0 0 1 7.453 20.654 A 0.746 0.746 0 0 0 7.577 20.634 Q 7.698 20.603 7.77 20.531 A 1.114 1.114 0 0 0 7.986 20.331 A 0.923 0.923 0 0 0 8.121 20.109 A 1.368 1.368 0 0 1 8.319 19.78 A 1.248 1.248 0 0 1 8.402 19.688 Q 8.543 19.582 8.719 19.582 A 0.514 0.514 0 0 0 9.035 19.477 A 1.519 1.519 0 0 0 9.202 19.329 Q 9.425 19.103 9.703 18.686 Q 10.09 18.106 10.477 17.824 A 1.052 1.052 0 0 1 10.63 17.763 Q 10.703 17.74 10.787 17.723 A 1.718 1.718 0 0 1 10.811 17.719 A 0.847 0.847 0 0 0 11.011 17.657 A 0.718 0.718 0 0 0 11.145 17.578 Q 11.568 17.216 11.99 16.658 A 8.778 8.778 0 0 0 12.129 16.471 A 6.398 6.398 0 0 1 12.922 15.555 A 5.669 5.669 0 0 1 13.219 15.293 A 4.031 4.031 0 0 1 13.678 15.002 A 3.295 3.295 0 0 1 13.992 14.854 A 2.97 2.97 0 0 0 14.695 14.449 A 0.662 0.662 0 0 0 14.837 14.332 Q 14.93 14.233 15.012 14.08 A 0.445 0.445 0 0 1 15.246 13.876 Q 15.33 13.842 15.438 13.827 A 1.283 1.283 0 0 1 15.609 13.816 A 0.39 0.39 0 0 1 15.898 13.947 Q 16.012 14.065 16.095 14.29 A 1.789 1.789 0 0 1 16.102 14.309 A 3.009 3.009 0 0 1 16.277 15.328 Q 16.277 15.706 16.177 15.916 A 0.654 0.654 0 0 1 16.172 15.926 L 16.102 16.102 A 2.405 2.405 0 0 1 15.964 16.387 A 2.72 2.72 0 0 1 15.926 16.453 A 2.114 2.114 0 0 1 15.773 16.673 A 2.625 2.625 0 0 1 15.662 16.805 A 0.679 0.679 0 0 1 15.562 16.897 Q 15.449 16.981 15.328 16.981 Q 15.188 16.981 14.977 17.191 A 7.863 7.863 0 0 0 14.66 17.528 A 8.902 8.902 0 0 0 14.555 17.649 A 100.971 100.971 0 0 0 14.248 18.008 A 89.549 89.549 0 0 0 14.15 18.123 A 4.048 4.048 0 0 1 14.059 18.227 Q 13.975 18.32 13.912 18.375 A 0.615 0.615 0 0 1 13.852 18.422 A 0.552 0.552 0 0 1 13.497 18.547 A 0.653 0.653 0 0 1 13.447 18.545 A 0.659 0.659 0 0 0 13.397 18.543 Q 13.195 18.543 13.008 18.668 Q 12.86 18.727 12.676 18.947 A 2.539 2.539 0 0 0 12.604 19.037 A 1.292 1.292 0 0 1 12.094 19.434 A 1.594 1.594 0 0 1 11.988 19.477 A 28.992 28.992 0 0 1 11.63 19.701 Q 11.132 20.008 10.881 20.127 A 6.962 6.962 0 0 0 10.23 20.479 A 7.224 7.224 0 0 0 10.057 20.588 Q 9.862 20.715 9.602 20.898 A 29.303 29.303 0 0 0 9.352 21.076 A 27.99 27.99 0 0 0 9.029 21.312 Q 8.509 21.698 7.65 22.36 A 199.132 199.132 0 0 0 7.559 22.43 A 1.897 1.897 0 0 1 7.172 22.729 A 2.496 2.496 0 0 0 6.981 22.853 Q 6.853 22.944 6.715 23.063 A 0.333 0.333 0 0 1 6.673 23.097 Q 6.595 23.152 6.42 23.238 A 5.601 5.601 0 0 1 6.346 23.274 A 254.554 254.554 0 0 0 6.038 23.419 A 301.007 301.007 0 0 0 5.713 23.572 A 7.957 7.957 0 0 0 5.396 23.731 A 6.039 6.039 0 0 0 5.115 23.889 Q 4.852 24.047 4.852 24.152 A 0.014 0.014 0 0 1 4.852 24.149 Q 4.856 24.13 4.939 24.345 A 9.67 9.67 0 0 1 4.939 24.346 A 4.727 4.727 0 0 0 5.026 24.556 Q 5.073 24.662 5.129 24.777 A 7.994 7.994 0 0 0 5.168 24.856 A 2.552 2.552 0 0 0 5.502 25.365 Q 5.627 25.513 5.759 25.565 A 0.397 0.397 0 0 0 5.906 25.594 Q 5.977 25.594 6.064 25.576 A 0.999 0.999 0 0 1 6.138 25.564 Q 6.183 25.559 6.223 25.559 Q 6.257 25.559 6.374 25.675 A 2.36 2.36 0 0 1 6.381 25.682 A 5.914 5.914 0 0 1 6.478 25.781 Q 6.521 25.826 6.567 25.876 A 10.766 10.766 0 0 1 6.662 25.981 A 4.778 4.778 0 0 0 6.913 26.239 A 5.551 5.551 0 0 0 7.014 26.332 A 6.833 6.833 0 0 0 7.149 26.452 Q 7.259 26.547 7.348 26.613 A 1.21 1.21 0 0 0 7.56 26.757 A 0.947 0.947 0 0 0 7.787 26.842 A 0.997 0.997 0 0 1 8.191 27.035 A 22.218 22.218 0 0 1 9.703 28.477 A 18.603 18.603 0 0 0 10.561 29.318 A 23.666 23.666 0 0 0 11.32 29.988 A 125.657 125.657 0 0 0 12.604 31.113 A 24.195 24.195 0 0 1 13.351 31.786 A 19.523 19.523 0 0 1 13.781 32.203 A 8.411 8.411 0 0 1 14.202 32.655 Q 14.386 32.867 14.532 33.071 A 4.721 4.721 0 0 1 14.625 33.205 Q 14.903 33.622 14.937 33.916 A 0.697 0.697 0 0 1 14.941 33.996 A 1.193 1.193 0 0 1 14.934 34.134 Q 14.913 34.31 14.836 34.4 Q 14.73 34.524 14.607 34.629 A 2.193 2.193 0 0 0 14.51 34.718 Q 14.468 34.759 14.422 34.807 A 4.585 4.585 0 0 0 14.326 34.91 A 0.907 0.907 0 0 0 14.215 35.067 Q 14.169 35.147 14.129 35.247 A 2.212 2.212 0 0 0 14.063 35.438 Q 14.01 35.597 13.986 35.925 A 6.602 6.602 0 0 0 13.975 36.158 A 15.946 15.946 0 0 1 13.904 37.195 Q 13.853 37.705 13.72 38.1 A 3.002 3.002 0 0 1 13.711 38.127 A 0.931 0.931 0 0 1 13.633 38.299 Q 13.494 38.531 13.254 38.531 A 0.716 0.716 0 0 1 13.141 38.523 Q 13.042 38.507 12.973 38.461 Q 12.867 38.391 12.727 38.25 A 7.797 7.797 0 0 1 12.652 38.174 Q 12.55 38.069 12.419 37.928 A 22.955 22.955 0 0 1 12.375 37.881 A 2.734 2.734 0 0 0 12.223 37.73 Q 12.032 37.554 11.742 37.336 Z"/></g></svg>